Coordinates
version=1
nRows=7
nColumns=46
inDegrees=yes

Units are S.I. units (second, meters, Newtons, ...)
Angles are in degrees.

endheader
time	pelvis_tilt	pelvis_list	pelvis_rotation	pelvis_tx	pelvis_ty	pelvis_tz	bb_angle	bb_tx	bb_ty	bb_tz	hip_flexion_r	hip_adduction_r	hip_rotation_r	knee_angle_r	knee_angle_r_beta	ankle_angle_r	subtalar_angle_r	mtp_angle_r	crank_angle_r	hip_flexion_l	hip_adduction_l	hip_rotation_l	knee_angle_l	knee_angle_l_beta	ankle_angle_l	subtalar_angle_l	mtp_angle_l	crank_angle_l	lumbar_extension	lumbar_bending	lumbar_rotation	arm_flex_r	arm_add_r	arm_rot_r	elbow_flex_r	pro_sup_r	wrist_flex_r	wrist_dev_r	arm_flex_l	arm_add_l	arm_rot_l	elbow_flex_l	pro_sup_l	wrist_flex_l	wrist_dev_l
      7.50500000	    -11.23339291	     11.12356356	      7.70297396	      0.18480087	      1.04411697	     -0.20609192	      0.00000000	      0.50000000	      0.00000000	      0.25000000	     37.27836568	    -14.14444117	      5.46657664	     35.99278294	      0.62819257	     -1.82075050	     -5.88963942	      0.00000000	      0.00000000	     77.53699981	      1.86676482	      1.90891030	    116.61446101	      2.03530630	      8.85372880	      6.32977057	      0.00000000	      0.00000000	    -70.20779041	     -5.74479819	    -13.33267367	     79.96597925	    -30.35671203	     25.61749363	     76.49585747	     41.45522043	      0.00000000	      0.00000000	     86.52575070	    -16.73490829	     20.91212219	     74.45232591	     46.63907389	      0.00000000	      0.00000000
      7.51000000	    -11.62512221	     11.44621131	      8.79900343	      0.18465361	      1.04458808	     -0.20595327	      0.00000000	      0.50000000	      0.00000000	      0.25000000	     37.00396485	    -14.95246091	      4.97247041	     36.41991638	      0.63564745	     -2.75795354	     -6.38767754	      0.00000000	      0.00000000	     79.10971762	      2.51585760	      1.66291849	    116.47728880	      2.03291219	      8.71814831	      6.96606157	      0.00000000	      0.00000000	    -70.13193005	     -5.46634854	    -13.85631100	     79.72562773	    -30.63831137	     25.19289862	     76.38222226	     41.46341257	      0.00000000	      0.00000000	     86.93537318	    -16.33382963	     21.44800245	     74.37973324	     46.65687242	      0.00000000	      0.00000000
      7.51500000	    -12.07479851	     11.73071663	      9.81041388	      0.18454130	      1.04515454	     -0.20564484	      0.00000000	      0.50000000	      0.00000000	      0.25000000	     36.87262021	    -15.62931799	      4.63322091	     36.95039124	      0.64490599	     -3.77889935	     -7.18953577	      0.00000000	      0.00000000	     80.58888064	      3.04823144	      1.34787637	    116.17583905	      2.02765090	      8.78294757	      7.63855555	      0.00000000	      0.00000000	    -70.01489980	     -5.58039464	    -13.68729523	     77.55893452	    -31.37807059	     21.83935636	     77.69379970	     42.24727339	      0.00000000	      0.00000000	     87.83091669	    -15.08591117	     23.42913529	     72.82329081	     46.26594666	      0.00000000	      0.00000000
      7.52000000	    -12.57174930	     11.91364712	     10.80815476	      0.18428650	      1.04585900	     -0.20542833	      0.00000000	      0.50000000	      0.00000000	      0.25000000	     36.87217406	    -16.19551922	      4.33031316	     37.61345064	      0.65647856	     -4.88085757	     -7.93646524	      0.00000000	      0.00000000	     82.00573154	      3.54838037	      1.04501986	    115.66826306	      2.01879203	      8.77414821	      8.24433640	      0.00000000	      0.00000000	    -69.87312446	     -5.41005714	    -13.85072090	     76.73240492	    -31.76603513	     20.36475715	     77.92663524	     42.82170833	      0.00000000	      0.00000000	     88.22842074	    -14.39746128	     24.15228649	     72.39722507	     45.92795898	      0.00000000	      0.00000000
      7.52500000	    -12.82415422	     11.99753489	     11.62596488	      0.18406208	      1.04665333	     -0.20551362	      0.00000000	      0.50000000	      0.00000000	      0.25000000	     36.81494644	    -16.63782842	      3.95556699	     38.61254222	      0.67391599	     -5.81584773	     -8.25405883	      0.00000000	      0.00000000	     83.06422385	      4.00368525	      0.82483343	    115.11352701	      2.00911006	      8.89442289	      8.61876883	      0.00000000	      0.00000000	    -69.92252107	     -5.09745826	    -14.12529661	     76.63646590	    -32.01672831	     20.10716747	     77.74948059	     42.81701580	      0.00000000	      0.00000000	     88.46109560	    -14.14621218	     24.27434356	     72.47115693	     45.92185114	      0.00000000	      0.00000000
      7.53000000	    -13.34297775	     12.10537555	     12.63070070	      0.18370045	      1.04733980	     -0.20589964	      0.00000000	      0.50000000	      0.00000000	      0.25000000	     37.07468427	    -17.21197984	      3.58571723	     39.70276715	      0.69294401	     -6.80581089	     -9.01756719	      0.00000000	      0.00000000	     84.22572281	      4.61999002	      0.44993146	    114.29175286	      1.99476740	      9.09948098	      9.14952668	      0.00000000	      0.00000000	    -69.72055674	     -4.74285898	    -14.44581209	     76.24383172	    -32.43553615	     19.49617944	     77.58712578	     42.82849129	      0.00000000	      0.00000000	     88.62875146	    -13.75385785	     24.56307378	     72.49598253	     45.89132257	      0.00000000	      0.00000000
      7.53500000	    -13.75720913	     12.05520616	     13.33709313	      0.18348006	      1.04796440	     -0.20574822	      0.00000000	      0.50000000	      0.00000000	      0.25000000	     37.41328678	    -17.37426587	      3.55045974	     40.98416567	      0.71530863	     -7.98646113	     -9.92863407	      0.00000000	      0.00000000	     85.11588772	      4.88716014	      0.19110959	    113.38873111	      1.97900669	      9.47698806	      9.54648128	      0.00000000	      0.00000000	    -69.67919048	     -4.72686198	    -14.06602311	     74.39163422	    -33.07837211	     16.69965652	     79.00178872	     43.47097143	      0.00000000	      0.00000000	     88.89134314	    -12.66966656	     25.03915596	     72.05891145	     45.33745499	      0.00000000	      0.00000000
